<svg width="38" height="39" viewBox="0 0 38 39" fill="none" xmlns="http://www.w3.org/2000/svg">
<g filter="url(#filter0_d)">
<path d="M25.5389 0.511719H11.9944C7.58621 0.511719 4 4.09606 4 8.50194V22.0396C4 26.4453 7.58621 30.0296 11.9944 30.0296H25.5391C29.9471 30.0296 33.5333 26.4453 33.5333 22.0396V8.50194C33.5333 4.09606 29.9471 0.511719 25.5389 0.511719V0.511719ZM31.8019 22.0396C31.8019 25.4911 28.9924 28.2991 25.5389 28.2991H11.9944C8.54089 28.2991 5.73137 25.4911 5.73137 22.0396V8.50194C5.73137 5.05025 8.54089 2.24218 11.9944 2.24218H25.5391C28.9924 2.24218 31.8019 5.05025 31.8019 8.50194V22.0396Z" fill="white"/>
<path d="M18.7666 7.1996C14.3138 7.1996 10.6913 10.8202 10.6913 15.2707C10.6913 19.7211 14.3138 23.3417 18.7666 23.3417C23.2194 23.3417 26.8418 19.7211 26.8418 15.2707C26.8418 10.8202 23.2194 7.1996 18.7666 7.1996ZM18.7666 21.6113C15.2687 21.6113 12.4227 18.767 12.4227 15.2707C12.4227 11.7746 15.2687 8.93006 18.7666 8.93006C22.2647 8.93006 25.1105 11.7746 25.1105 15.2707C25.1105 18.767 22.2647 21.6113 18.7666 21.6113Z" fill="white"/>
<path d="M27.035 4.33318C25.7191 4.33318 24.6488 5.40312 24.6488 6.71808C24.6488 8.03327 25.7191 9.10322 27.035 9.10322C28.3508 9.10322 29.4213 8.03327 29.4213 6.71808C29.4213 5.40289 28.3508 4.33318 27.035 4.33318ZM27.035 7.37252C26.674 7.37252 26.3802 7.07886 26.3802 6.71808C26.3802 6.35708 26.674 6.06364 27.035 6.06364C27.3961 6.06364 27.69 6.35708 27.69 6.71808C27.69 7.07886 27.3961 7.37252 27.035 7.37252Z" fill="white"/>
</g>
<defs>
<filter id="filter0_d" x="0" y="0.511719" width="37.5333" height="37.5179" filterUnits="userSpaceOnUse" color-interpolation-filters="sRGB">
<feFlood flood-opacity="0" result="BackgroundImageFix"/>
<feColorMatrix in="SourceAlpha" type="matrix" values="0 0 0 0 0 0 0 0 0 0 0 0 0 0 0 0 0 0 127 0"/>
<feOffset dy="4"/>
<feGaussianBlur stdDeviation="2"/>
<feColorMatrix type="matrix" values="0 0 0 0 0 0 0 0 0 0 0 0 0 0 0 0 0 0 0.25 0"/>
<feBlend mode="normal" in2="BackgroundImageFix" result="effect1_dropShadow"/>
<feBlend mode="normal" in="SourceGraphic" in2="effect1_dropShadow" result="shape"/>
</filter>
</defs>
</svg>
